<svg width="24" height="24" viewBox="0 0 24 24" fill="none" xmlns="http://www.w3.org/2000/svg">
<mask id="path-1-inside-1_66_10894" fill="white">
<path d="M0 4C0 1.79086 1.79086 0 4 0H20C22.2091 0 24 1.79086 24 4V20C24 22.2091 22.2091 24 20 24H4C1.79086 24 0 22.2091 0 20V4Z"/>
</mask>
<path d="M4 0V1H20V0V-1H4V0ZM24 4H23V20H24H25V4H24ZM20 24V23H4V24V25H20V24ZM0 20H1V4H0H-1V20H0ZM4 24V23C2.34315 23 1 21.6569 1 20H0H-1C-1 22.7614 1.23858 25 4 25V24ZM24 20H23C23 21.6569 21.6569 23 20 23V24V25C22.7614 25 25 22.7614 25 20H24ZM20 0V1C21.6569 1 23 2.34315 23 4H24H25C25 1.23858 22.7614 -1 20 -1V0ZM4 0V-1C1.23858 -1 -1 1.23858 -1 4H0H1C1 2.34315 2.34315 1 4 1V0Z" fill="#D1D5DC" mask="url(#path-1-inside-1_66_10894)"/>
<path d="M7.33325 12H16.6666" stroke="#4A5565" stroke-width="1.33333" stroke-linecap="round" stroke-linejoin="round"/>
<path d="M12 16.667V7.33366" stroke="#4A5565" stroke-width="1.33333" stroke-linecap="round" stroke-linejoin="round"/>
</svg>
